<mxfile host="app.diagrams.net" modified="2023-05-25T09:02:30.328Z" agent="Mozilla/5.0 (Windows NT 10.0; Win64; x64) AppleWebKit/537.36 (KHTML, like Gecko) Chrome/113.0.0.0 Safari/537.36" etag="-lsMPXxqjsvoQLglE3by" version="21.3.3" type="github">
  <diagram name="第 1 页" id="zd0G-STR5tbT3xPcdGeG">
    <mxGraphModel dx="1050" dy="485" grid="1" gridSize="10" guides="1" tooltips="1" connect="1" arrows="1" fold="1" page="1" pageScale="1" pageWidth="3300" pageHeight="4681" math="0" shadow="0">
      <root>
        <mxCell id="0" />
        <mxCell id="1" parent="0" />
        <mxCell id="v38QHxv8vxU7HFTm4bsL-3" value="网络请求" style="edgeStyle=orthogonalEdgeStyle;rounded=0;orthogonalLoop=1;jettySize=auto;html=1;exitX=1;exitY=0.5;exitDx=0;exitDy=0;entryX=0;entryY=0.5;entryDx=0;entryDy=0;" edge="1" parent="1" source="v38QHxv8vxU7HFTm4bsL-1" target="v38QHxv8vxU7HFTm4bsL-2">
          <mxGeometry relative="1" as="geometry" />
        </mxCell>
        <mxCell id="v38QHxv8vxU7HFTm4bsL-1" value="开始" style="rounded=1;whiteSpace=wrap;html=1;" vertex="1" parent="1">
          <mxGeometry x="40" y="190" width="120" height="60" as="geometry" />
        </mxCell>
        <mxCell id="v38QHxv8vxU7HFTm4bsL-9" style="edgeStyle=orthogonalEdgeStyle;rounded=0;orthogonalLoop=1;jettySize=auto;html=1;exitX=1;exitY=0.5;exitDx=0;exitDy=0;entryX=0;entryY=0.5;entryDx=0;entryDy=0;" edge="1" parent="1" source="v38QHxv8vxU7HFTm4bsL-2" target="v38QHxv8vxU7HFTm4bsL-4">
          <mxGeometry relative="1" as="geometry" />
        </mxCell>
        <mxCell id="v38QHxv8vxU7HFTm4bsL-2" value="教师功能路由" style="rounded=0;whiteSpace=wrap;html=1;" vertex="1" parent="1">
          <mxGeometry x="250" y="190" width="120" height="60" as="geometry" />
        </mxCell>
        <mxCell id="v38QHxv8vxU7HFTm4bsL-8" value="是" style="edgeStyle=orthogonalEdgeStyle;rounded=0;orthogonalLoop=1;jettySize=auto;html=1;exitX=1;exitY=0.5;exitDx=0;exitDy=0;entryX=0;entryY=0.5;entryDx=0;entryDy=0;" edge="1" parent="1" source="v38QHxv8vxU7HFTm4bsL-4" target="v38QHxv8vxU7HFTm4bsL-5">
          <mxGeometry relative="1" as="geometry" />
        </mxCell>
        <mxCell id="v38QHxv8vxU7HFTm4bsL-10" value="否" style="edgeStyle=orthogonalEdgeStyle;rounded=0;orthogonalLoop=1;jettySize=auto;html=1;exitX=0.5;exitY=0;exitDx=0;exitDy=0;entryX=0;entryY=0.5;entryDx=0;entryDy=0;" edge="1" parent="1" source="v38QHxv8vxU7HFTm4bsL-4" target="v38QHxv8vxU7HFTm4bsL-7">
          <mxGeometry relative="1" as="geometry" />
        </mxCell>
        <mxCell id="v38QHxv8vxU7HFTm4bsL-4" value="是否有教师权限" style="rhombus;whiteSpace=wrap;html=1;" vertex="1" parent="1">
          <mxGeometry x="430" y="180" width="160" height="80" as="geometry" />
        </mxCell>
        <mxCell id="v38QHxv8vxU7HFTm4bsL-11" style="edgeStyle=orthogonalEdgeStyle;rounded=0;orthogonalLoop=1;jettySize=auto;html=1;exitX=1;exitY=0.5;exitDx=0;exitDy=0;entryX=0;entryY=0.5;entryDx=0;entryDy=0;" edge="1" parent="1" source="v38QHxv8vxU7HFTm4bsL-5" target="v38QHxv8vxU7HFTm4bsL-6">
          <mxGeometry relative="1" as="geometry" />
        </mxCell>
        <mxCell id="v38QHxv8vxU7HFTm4bsL-5" value="响应请求" style="rounded=0;whiteSpace=wrap;html=1;" vertex="1" parent="1">
          <mxGeometry x="670" y="190" width="120" height="60" as="geometry" />
        </mxCell>
        <mxCell id="v38QHxv8vxU7HFTm4bsL-6" value="结束" style="rounded=1;whiteSpace=wrap;html=1;" vertex="1" parent="1">
          <mxGeometry x="860" y="190" width="120" height="60" as="geometry" />
        </mxCell>
        <mxCell id="v38QHxv8vxU7HFTm4bsL-12" style="edgeStyle=orthogonalEdgeStyle;rounded=0;orthogonalLoop=1;jettySize=auto;html=1;exitX=1;exitY=0.5;exitDx=0;exitDy=0;entryX=0.5;entryY=0;entryDx=0;entryDy=0;" edge="1" parent="1" source="v38QHxv8vxU7HFTm4bsL-7" target="v38QHxv8vxU7HFTm4bsL-6">
          <mxGeometry relative="1" as="geometry" />
        </mxCell>
        <mxCell id="v38QHxv8vxU7HFTm4bsL-7" value="返回错误" style="rounded=0;whiteSpace=wrap;html=1;" vertex="1" parent="1">
          <mxGeometry x="670" y="60" width="120" height="60" as="geometry" />
        </mxCell>
      </root>
    </mxGraphModel>
  </diagram>
</mxfile>
